<?xml version="1.0" encoding="utf-8"?>
<svg version="1.1" xmlns:xlink="http://www.w3.org/1999/xlink" width="215px" height="172px" xmlns="http://www.w3.org/2000/svg">
  <g transform="matrix(1 0 0 1 -722 10 )">
    <path d="M 829.5 -10  C 889.7 -10  937 27.84  937 76  C 937 124.16  889.7 162  829.5 162  C 769.3 162  722 124.16  722 76  C 722 27.84  769.3 -10  829.5 -10  Z " fill-rule="nonzero" fill="#ffffff" stroke="none" />
    <path d="M 829.5 -9.5  C 889.42 -9.5  936.5 28.12  936.5 76  C 936.5 123.88  889.42 161.5  829.5 161.5  C 769.58 161.5  722.5 123.88  722.5 76  C 722.5 28.12  769.58 -9.5  829.5 -9.5  Z " stroke-width="1" stroke="#797979" fill="none" />
  </g>
</svg>