<svg t="1642923376775" class="icon" viewBox="0 0 1024 1024" version="1.1" xmlns="http://www.w3.org/2000/svg" p-id="2982" width="200" height="200"><path d="M512.3 746.1c-10.8 0-19.5-8.7-19.5-19.5v-58.4c0-10.8 8.7-19.5 19.5-19.5s19.5 8.7 19.5 19.5v58.4c0 10.8-8.7 19.5-19.5 19.5zM512.3 590.2c-10.8 0-19.5-8.7-19.5-19.5V239.6c0-10.8 8.7-19.5 19.5-19.5s19.5 8.7 19.5 19.5v331.2c0 10.7-8.7 19.4-19.5 19.4z" fill="#FF7878" p-id="2983"></path><path d="M512.3 103.2c225.6 0 409.1 183.5 409.1 409.1 0 225.6-183.5 409.1-409.1 409.1S103.2 737.9 103.2 512.3c0-225.6 183.5-409.1 409.1-409.1m0-39c-247.5 0-448.1 200.6-448.1 448.1 0 247.5 200.6 448.1 448.1 448.1 247.5 0 448.1-200.6 448.1-448.1 0-247.5-200.7-448.1-448.1-448.1z" fill="#FF7878" p-id="2984"></path></svg>