<?xml version="1.0" encoding="utf-8"?>
<svg version="1.1" xmlns:xlink="http://www.w3.org/1999/xlink" width="9px" height="9px" xmlns="http://www.w3.org/2000/svg">
  <g transform="matrix(1 0 0 1 -625 55 )">
    <path d="M 629.5 -55  C 632.02 -55  634 -53.02  634 -50.5  C 634 -47.98  632.02 -46  629.5 -46  C 626.98 -46  625 -47.98  625 -50.5  C 625 -53.02  626.98 -55  629.5 -55  Z " fill-rule="nonzero" fill="#ffffff" stroke="none" />
    <path d="M 629.5 -54.5  C 631.74 -54.5  633.5 -52.74  633.5 -50.5  C 633.5 -48.26  631.74 -46.5  629.5 -46.5  C 627.26 -46.5  625.5 -48.26  625.5 -50.5  C 625.5 -52.74  627.26 -54.5  629.5 -54.5  Z " stroke-width="1" stroke="#fd0000" fill="none" />
  </g>
</svg>