<?xml version="1.0" encoding="utf-8"?>
<svg version="1.1" xmlns:xlink="http://www.w3.org/1999/xlink" width="9px" height="9px" xmlns="http://www.w3.org/2000/svg">
  <g transform="matrix(1 0 0 1 -1712 -315 )">
    <path d="M 1716.5 315  C 1719.02 315  1721 316.98  1721 319.5  C 1721 322.02  1719.02 324  1716.5 324  C 1713.98 324  1712 322.02  1712 319.5  C 1712 316.98  1713.98 315  1716.5 315  Z " fill-rule="nonzero" fill="#ffffff" stroke="none" />
    <path d="M 1716.5 315.5  C 1718.74 315.5  1720.5 317.26  1720.5 319.5  C 1720.5 321.74  1718.74 323.5  1716.5 323.5  C 1714.26 323.5  1712.5 321.74  1712.5 319.5  C 1712.5 317.26  1714.26 315.5  1716.5 315.5  Z " stroke-width="1" stroke="#797979" fill="none" />
  </g>
</svg>