<?xml version="1.0" encoding="utf-8"?>
<svg version="1.1" xmlns:xlink="http://www.w3.org/1999/xlink" width="14px" height="14px" xmlns="http://www.w3.org/2000/svg">
  <g transform="matrix(1 0 0 1 -552 -306 )">
    <path d="M 559 306  C 562.92 306  566 309.08  566 313  C 566 316.92  562.92 320  559 320  C 555.08 320  552 316.92  552 313  C 552 309.08  555.08 306  559 306  Z " fill-rule="nonzero" fill="#ffffff" stroke="none" />
    <path d="M 559 306.5  C 562.64 306.5  565.5 309.36  565.5 313  C 565.5 316.64  562.64 319.5  559 319.5  C 555.36 319.5  552.5 316.64  552.5 313  C 552.5 309.36  555.36 306.5  559 306.5  Z " stroke-width="1" stroke="#dcdfe6" fill="none" />
  </g>
</svg>