<?xml version="1.0" encoding="utf-8"?>
<svg version="1.1" xmlns:xlink="http://www.w3.org/1999/xlink" width="14px" height="14px" xmlns="http://www.w3.org/2000/svg">
  <g transform="matrix(1 0 0 1 -455 -306 )">
    <path d="M 462 310  C 463.68 310  465 311.32  465 313  C 465 314.68  463.68 316  462 316  C 460.32 316  459 314.68  459 313  C 459 311.32  460.32 310  462 310  Z " fill-rule="nonzero" fill="#ffffff" stroke="none" />
    <path d="M 462 308.5  C 464.52 308.5  466.5 310.48  466.5 313  C 466.5 315.52  464.52 317.5  462 317.5  C 459.48 317.5  457.5 315.52  457.5 313  C 457.5 310.48  459.48 308.5  462 308.5  Z " stroke-width="5" stroke="#409eff" fill="none" />
  </g>
</svg>