<svg t="1642988957652" class="icon" viewBox="0 0 1098 1024" version="1.1" xmlns="http://www.w3.org/2000/svg" p-id="2971" width="200" height="200"><path d="M544.120107 518.863271m-441.445576 0a441.445576 441.445576 0 1 0 882.891153 0 441.445576 441.445576 0 1 0-882.891153 0Z" fill="#919191" p-id="2972"></path><path d="M540.825737 591.33941h-4.941555c-15.373727 0-28.002145-12.628418-28.002144-28.002145V203.701877c0-15.373727 12.628418-28.002145 28.002144-28.002145h4.941555c15.373727 0 28.002145 12.628418 28.002145 28.002145v360.18445c0 14.824665-12.628418 27.453083-28.002145 27.453083z" fill="#FFFFFF" p-id="2973"></path><path d="M774.726005 555.650402v16.47185c0 12.079357-9.88311 21.962466-21.962466 21.962466H535.884182c-12.079357 0-21.962466-9.88311-21.962466-21.962466v-16.47185c0-12.079357 9.88311-21.962466 21.962466-21.962466H752.214477c12.628418-0.549062 22.511528 9.88311 22.511528 21.962466z" fill="#FFFFFF" p-id="2974"></path></svg>